<?xml version="1.0" encoding="iso-8859-1"?>
<!-- Uploaded to: SVG Repo, www.svgrepo.com, Generator: SVG Repo Mixer Tools -->
<svg fill="#ffffff" height="800px" width="800px" version="1.1" id="Layer_1" xmlns="http://www.w3.org/2000/svg" xmlns:xlink="http://www.w3.org/1999/xlink" 
	 viewBox="0 0 512 512" xml:space="preserve">
<g>
	<g>
		<path d="M485.249,14.476c-19.301-19.301-50.705-19.301-70.006,0L304.515,125.204c-8.24-2.836-17.747-0.998-24.312,5.569
			c-6.564,6.566-8.402,16.071-5.566,24.311L29.056,400.664c-2.027,2.027-2.887,4.943-2.287,7.745
			c0.602,2.803,2.582,5.11,5.262,6.127c23.08,8.765,47.13,13.022,70.999,13.022c52.286,0,103.672-20.436,141.914-58.678L365,248.826
			l7.802,7.803c4.585,4.585,10.608,6.878,16.63,6.878s12.045-2.293,16.63-6.878c9.17-9.17,9.17-24.091,0-33.26l-29.849-29.849
			L485.25,84.482C504.549,65.181,504.549,33.776,485.249,14.476z M232.995,356.931c-47.856,47.857-118.18,65.258-182.38,46.071
			l33.171-33.171c0.72,1.258,1.569,2.503,2.59,3.704c5.388,6.34,13.531,9.554,24.203,9.554c24.754,0,33.816-13.848,41.812-26.065
			c9.427-14.404,18.331-28.009,55.071-28.009c25.083,0,46.006-4.012,62.893-9.446L232.995,356.931z M311.636,278.29
			c-0.338,0.338-34.632,33.828-104.175,33.828c-20.155,0-35.721,3.84-47.586,11.741c-10.592,7.053-16.453,16.011-21.626,23.914
			c-7.517,11.486-12.055,18.42-27.672,18.42c-3.737,0-8.725-0.613-11.269-3.532c-1.601-1.837-2.076-4.343-2.189-6.163
			l187.774-187.775l68.155,68.155L311.636,278.29z M394.115,235.315c2.58,2.582,2.58,6.783-0.001,9.364
			c-2.582,2.581-6.782,2.581-9.364,0l-92.596-92.597c-2.582-2.582-2.582-6.782,0-9.364c1.291-1.291,2.987-1.937,4.682-1.937
			c1.695,0,3.391,0.646,4.682,1.937L394.115,235.315z M364.264,181.568l-46.109-46.107l103.43-103.43l46.109,46.108L364.264,181.568
			z M478.749,65.296l-44.321-44.32c12.4-6.873,28.36-5.064,38.873,5.448C483.813,36.937,485.623,52.897,478.749,65.296z"/>
	</g>
</g>
<g>
	<g>
		<path d="M288.915,194.514c-3.299-3.3-8.648-3.3-11.948,0l-82.238,82.238c-3.3,3.3-3.3,8.65,0,11.948
			c1.649,1.649,3.812,2.475,5.974,2.475s4.325-0.825,5.974-2.475l82.238-82.238C292.215,203.162,292.215,197.812,288.915,194.514z"
			/>
	</g>
</g>
<g>
	<g>
		<path d="M71.174,453.101l-18.429-18.429c-1.584-1.585-3.733-2.475-5.974-2.475s-4.39,0.89-5.974,2.475l-18.429,18.429
			c-13.456,13.456-13.456,35.35,0,48.807C29.095,508.636,37.933,512,46.77,512c8.838,0,17.675-3.364,24.403-10.092
			C84.629,488.453,84.629,466.558,71.174,453.101z M59.224,489.959c-6.867,6.867-18.042,6.866-24.909,0
			c-6.867-6.867-6.867-18.042,0-24.909l12.455-12.455l12.454,12.455C66.091,471.918,66.091,483.091,59.224,489.959z"/>
	</g>
</g>
<g>
	<g>
		<circle cx="370.263" cy="129.463" r="8.449"/>
	</g>
</g>
<g>
	<g>
		<circle cx="417.578" cy="82.146" r="8.449"/>
	</g>
</g>
</svg>