<?xml version="1.0" standalone="no"?>
<!DOCTYPE svg PUBLIC "-//W3C//DTD SVG 20010904//EN"
 "http://www.w3.org/TR/2001/REC-SVG-20010904/DTD/svg10.dtd">
<svg version="1.0" xmlns="http://www.w3.org/2000/svg"
 width="1280.000000pt" height="640.000000pt" viewBox="0 0 1280.000000 640.000000"
 preserveAspectRatio="xMidYMid meet">
<metadata>
Created by potrace 1.15, written by Peter Selinger 2001-2017
</metadata>
<g fill="#ffffff" stroke="none">
<path d="M8274 4296 c-23 -7 -62 -27 -88 -45 l-46 -32 0 -184 0 -185 -27 0
c-16 0 -217 9 -448 21 l-420 20 -92 -98 c-51 -53 -95 -94 -99 -90 -4 3 -1 41
6 83 12 72 12 78 -5 90 -19 14 -187 20 -219 8 -9 -4 -36 -36 -60 -73 -23 -36
-50 -72 -59 -80 -15 -12 -17 -11 -17 10 0 13 5 42 10 63 16 71 7 76 -128 76
l-118 0 -75 -87 -74 -88 -3 80 c-2 48 -8 82 -15 87 -7 4 -57 8 -112 8 l-100 0
-78 -82 -78 -83 7 50 c10 71 8 96 -8 106 -7 5 -59 9 -116 9 l-103 0 -42 -47
c-23 -26 -59 -65 -80 -88 l-39 -40 8 45 c4 25 8 61 8 80 l1 35 -126 3 -127 3
-51 -70 c-28 -38 -59 -75 -68 -82 -15 -13 -16 -11 -10 11 3 14 9 48 13 77 6
51 6 52 -21 59 -15 4 -242 4 -504 1 l-476 -5 -265 -36 c-1696 -232 -2569 -367
-3450 -536 -146 -28 -303 -58 -350 -67 -94 -17 -130 -34 -130 -61 0 -21 126
-146 216 -215 310 -235 780 -405 1322 -476 232 -31 418 -40 1007 -51 303 -5
840 -15 1195 -21 355 -7 1311 -12 2125 -13 l1480 -1 14 30 c27 60 82 105 156
128 60 19 93 22 230 22 88 0 213 -4 277 -9 l118 -8 2 -191 3 -192 60 -30 c51
-25 72 -30 135 -30 64 0 83 4 130 30 l55 30 3 214 2 213 53 -6 c117 -14 597
-36 986 -46 603 -15 1341 4 2151 55 370 24 428 30 448 49 23 20 72 21 98 1 15
-11 57 -14 201 -15 100 0 188 3 197 6 18 7 85 205 112 334 28 128 25 361 -5
500 -30 136 -99 363 -114 372 -7 4 -94 8 -193 8 -166 0 -183 -2 -207 -20 -31
-25 -42 -25 -81 0 -35 21 -106 26 -741 52 -476 20 -2032 16 -2497 -5 -202 -9
-376 -17 -387 -17 -20 0 -21 5 -21 185 l0 185 -39 26 c-42 27 -121 54 -155 53
-12 0 -39 -6 -62 -13z m-7963 -1303 c13 -16 12 -17 -3 -4 -10 7 -18 15 -18 17
0 8 8 3 21 -13z"/>
</g>
</svg>
